<?xml version="1.0" standalone="no"?>
<!DOCTYPE svg PUBLIC "-//W3C//DTD SVG 20010904//EN"
 "http://www.w3.org/TR/2001/REC-SVG-20010904/DTD/svg10.dtd">
<svg version="1.0" xmlns="http://www.w3.org/2000/svg"
 width="101.000000pt" height="108.000000pt" viewBox="0 0 101.000000 108.000000"
 preserveAspectRatio="xMidYMid meet">

<g transform="translate(0.000000,108.000000) scale(0.100000,-0.100000)"
fill="#000000" stroke="none">
<path d="M439 866 c-163 -34 -256 -221 -185 -371 24 -51 71 -103 82 -92 4 3
-7 22 -24 41 -64 73 -75 186 -27 275 79 143 255 174 383 66 36 -30 58 -67 77
-129 10 -33 14 -37 20 -23 11 27 -23 105 -67 153 -69 75 -156 102 -259 80z"/>
<path d="M437 800 c-44 -13 -95 -57 -118 -102 -39 -77 -21 -192 39 -238 32
-26 42 -17 14 13 -29 31 -52 89 -52 132 0 41 28 100 62 132 97 91 278 31 295
-97 3 -22 10 -40 15 -40 5 0 7 4 3 9 -3 5 -1 12 4 15 15 9 -9 71 -42 112 -52
63 -139 88 -220 64z"/>
<path d="M495 733 c-4 -13 -13 -23 -20 -23 -20 0 -45 -35 -45 -63 0 -19 8 -31
30 -42 17 -9 30 -19 30 -24 0 -5 11 -4 25 2 28 13 33 27 10 27 -10 0 -15 11
-15 35 0 41 20 47 43 13 8 -13 18 -20 23 -16 13 14 -14 57 -40 64 -15 3 -27
15 -29 27 l-4 22 -8 -22z m-5 -83 c0 -33 -11 -38 -30 -15 -15 18 -6 45 15 45
10 0 15 -10 15 -30z"/>
<path d="M345 390 c-4 -6 3 -10 14 -10 12 0 21 -4 21 -9 0 -5 7 -11 14 -14 10
-4 13 -1 10 7 -7 19 -52 38 -59 26z"/>
</g>
</svg>
