<?xml version="1.0" standalone="no"?>
<!DOCTYPE svg PUBLIC "-//W3C//DTD SVG 20010904//EN"
 "http://www.w3.org/TR/2001/REC-SVG-20010904/DTD/svg10.dtd">
<svg version="1.0" xmlns="http://www.w3.org/2000/svg"
 width="107.000000pt" height="104.000000pt" viewBox="0 0 107.000000 104.000000"
 preserveAspectRatio="xMidYMid meet">

<g transform="translate(0.000000,104.000000) scale(0.100000,-0.100000)"
fill="#000000" stroke="none">
<path d="M392 784 c-12 -8 -27 -25 -33 -37 -10 -22 -10 -22 8 -2 10 11 27 28
38 38 24 21 17 22 -13 1z"/>
<path d="M550 797 c0 -3 12 -12 26 -22 15 -9 23 -12 20 -6 -7 11 -46 35 -46
28z"/>
<path d="M400 745 c-19 -23 -8 -25 14 -4 11 11 15 19 9 19 -6 0 -16 -7 -23
-15z"/>
<path d="M541 757 c2 -1 13 -9 24 -17 19 -14 19 -14 6 3 -7 9 -18 17 -24 17
-6 0 -8 -1 -6 -3z"/>
<path d="M425 719 c-4 -6 -5 -12 -2 -15 2 -3 7 2 10 11 7 17 1 20 -8 4z"/>
<path d="M454 686 c-12 -20 -26 -26 -62 -28 -46 -3 -48 -4 -77 -60 -23 -44
-36 -58 -55 -60 -23 -3 -25 -7 -25 -57 0 -43 4 -56 20 -65 21 -12 44 -37 45
-48 0 -4 -17 -9 -37 -11 -21 -2 7 -4 62 -4 55 0 92 1 83 4 -21 5 -21 8 -8 34
9 17 22 19 107 19 78 0 98 -3 108 -17 10 -13 11 -10 7 18 -3 19 -7 28 -9 22
-6 -18 -33 -16 -33 2 0 8 -8 15 -17 14 -11 0 -13 -3 -5 -6 30 -12 7 -23 -48
-23 -63 0 -83 16 -27 23 31 4 31 4 -5 5 -28 2 -38 -2 -38 -13 0 -25 -24 -17
-42 15 -14 25 -24 30 -53 30 -29 0 -39 -5 -53 -30 -9 -16 -23 -30 -30 -30 -20
0 -25 28 -8 45 9 9 16 27 16 41 0 13 6 24 13 24 6 0 26 26 42 58 l30 57 135 3
135 3 29 -33 29 -33 -25 35 c-23 31 -31 35 -77 38 -28 2 -51 7 -51 12 0 14
-30 40 -45 40 -8 0 -22 -11 -31 -24z m54 -9 c3 -12 -3 -17 -22 -17 -25 0 -35
18 -19 34 12 12 38 2 41 -17z m-257 -200 c-8 -8 -11 -4 -11 14 0 33 14 47 18
19 2 -12 -1 -27 -7 -33z m134 -27 c37 -41 -14 -107 -64 -81 -47 26 -30 101 24
101 12 0 30 -9 40 -20z"/>
<path d="M333 443 c-7 -3 -13 -14 -12 -26 0 -21 1 -20 10 3 10 24 11 24 25 6
11 -16 14 -17 14 -4 0 17 -18 27 -37 21z"/>
<path d="M342 585 c-12 -25 -22 -48 -22 -50 0 -3 17 -4 38 -4 30 2 32 3 10 6
-33 5 -32 1 -12 48 l15 37 55 -4 c29 -1 54 0 54 5 0 4 -26 7 -58 7 l-58 0 -22
-45z"/>
<path d="M500 580 l0 -50 53 2 c43 1 45 2 15 5 -37 4 -38 5 -38 45 l0 40 49
-4 c27 -1 47 0 44 5 -2 4 -31 7 -64 7 l-59 0 0 -50z m17 -22 c-2 -13 -4 -3 -4
22 0 25 2 35 4 23 2 -13 2 -33 0 -45z"/>
<path d="M700 545 c7 -8 28 -15 46 -15 29 0 34 -3 34 -24 0 -14 4 -27 8 -30 5
-3 6 8 4 25 -6 39 25 41 31 2 5 -27 5 -27 3 2 -1 29 -2 30 -58 33 -32 2 -58 7
-58 12 0 6 -5 10 -11 10 -8 0 -8 -5 1 -15z"/>
<path d="M508 503 c7 -3 16 -2 19 1 4 3 -2 6 -13 5 -11 0 -14 -3 -6 -6z"/>
<path d="M658 473 c7 -3 16 -2 19 1 4 3 -2 6 -13 5 -11 0 -14 -3 -6 -6z"/>
<path d="M657 443 c-4 -3 -7 -16 -6 -27 0 -19 1 -19 10 3 8 20 11 22 27 10 15
-13 16 -12 3 4 -14 18 -24 21 -34 10z"/>
<path d="M470 376 c0 -9 39 -13 51 -5 10 6 4 9 -18 9 -18 0 -33 -2 -33 -4z"/>
<path d="M465 339 c4 -5 22 -9 42 -9 45 0 40 5 -10 13 -22 3 -35 2 -32 -4z"/>
</g>
</svg>
