<?xml version="1.0" standalone="no"?>
<!DOCTYPE svg PUBLIC "-//W3C//DTD SVG 20010904//EN"
 "http://www.w3.org/TR/2001/REC-SVG-20010904/DTD/svg10.dtd">
<svg version="1.0" xmlns="http://www.w3.org/2000/svg"
 width="98.000000pt" height="106.000000pt" viewBox="0 0 98.000000 106.000000"
 preserveAspectRatio="xMidYMid meet">

<g transform="translate(0.000000,106.000000) scale(0.100000,-0.100000)"
fill="#000000" stroke="none">
<path d="M478 843 c7 -3 16 -2 19 1 4 3 -2 6 -13 5 -11 0 -14 -3 -6 -6z"/>
<path d="M390 818 c-19 -12 -48 -22 -65 -23 -28 0 -32 -5 -62 -80 -38 -94 -40
-127 -14 -193 14 -35 17 -52 9 -60 -7 -7 -7 -28 -1 -69 6 -32 11 -46 12 -31 1
23 6 27 39 31 l37 4 -42 1 c-41 2 -43 4 -43 32 0 30 0 30 59 30 38 0 61 -4 64
-12 3 -7 4 5 2 27 -2 22 -7 48 -11 59 -6 17 -5 17 17 5 21 -11 20 -8 -8 25
-29 32 -33 44 -33 92 0 41 6 64 21 85 55 77 168 79 228 3 26 -33 29 -120 6
-164 -8 -16 -11 -31 -6 -34 13 -8 31 50 31 100 0 32 4 44 15 44 11 0 15 -14
17 -57 l2 -58 3 54 c3 34 -2 71 -13 102 -10 27 -15 51 -11 55 15 15 34 -8 56
-70 13 -37 25 -65 27 -63 5 5 -36 117 -49 135 -6 8 -20 11 -33 8 -15 -4 -36 2
-60 19 -20 14 -46 25 -58 25 -14 -1 -8 -6 17 -14 21 -8 47 -22 59 -33 21 -19
48 -65 48 -83 0 -20 -16 -9 -34 24 -34 65 -131 95 -195 61 -29 -14 -75 -63
-84 -87 -2 -7 -7 -10 -11 -7 -4 4 -1 22 7 41 16 37 60 75 105 88 20 6 22 8 7
9 -11 1 -36 -9 -55 -21z m-60 -43 c0 -8 -7 -32 -16 -54 -9 -24 -14 -59 -11
-92 l3 -54 2 58 c2 43 6 57 17 57 11 0 15 -11 15 -42 0 -24 7 -61 15 -83 8
-22 14 -52 15 -67 0 -26 -2 -28 -45 -28 -42 0 -46 2 -61 38 -30 68 -28 110 6
200 19 49 37 82 46 82 8 0 14 -7 14 -15z"/>
<path d="M472 708 c-17 -17 -15 -45 3 -52 12 -4 13 -2 3 14 -16 26 -2 37 25
21 22 -14 22 -14 3 8 -23 25 -19 24 -34 9z"/>
<path d="M556 535 c-11 -8 -15 -15 -9 -15 6 0 16 7 23 15 16 19 11 19 -14 0z"/>
<path d="M463 513 c15 -2 37 -2 50 0 12 2 0 4 -28 4 -27 0 -38 -2 -22 -4z"/>
<path d="M420 486 c0 -2 9 -6 20 -9 11 -3 18 -1 14 4 -5 9 -34 13 -34 5z"/>
</g>
</svg>
